<?xml version="1.0" ?><svg height="32px" id="Pinterest" style="enable-background:new 0 0 32 32;" version="1.0" viewBox="0 0 32 32" width="32px" xml:space="preserve" xmlns="http://www.w3.org/2000/svg" xmlns:xlink="http://www.w3.org/1999/xlink"><style type="text/css">
	.Drop_x0020_Shadow{fill:none;}
	.Round_x0020_Corners_x0020_2_x0020_pt{fill:#FFFFFF;stroke:#000000;stroke-miterlimit:10;}
	.Live_x0020_Reflect_x0020_X{fill:none;}
	.Bevel_x0020_Soft{fill:url(#SVGID_1_);}
	.Dusk{fill:#FFFFFF;}
	.Foliage_GS{fill:#FFDD00;}
	.Pompadour_GS{fill-rule:evenodd;clip-rule:evenodd;fill:#44ADE2;}
	.st0{fill:#BE1E2D;}
	.st1{fill:#FFFFFF;}
</style><linearGradient gradientUnits="userSpaceOnUse" id="SVGID_1_" x1="-47" x2="-46.2929" y1="-47" y2="-46.2929"><stop offset="0" style="stop-color:#DEDFE3"/><stop offset="0.1738" style="stop-color:#D8D9DD"/><stop offset="0.352" style="stop-color:#C9CACD"/><stop offset="0.5323" style="stop-color:#B4B5B8"/><stop offset="0.7139" style="stop-color:#989A9C"/><stop offset="0.8949" style="stop-color:#797C7E"/><stop offset="1" style="stop-color:#656B6C"/></linearGradient><g id="XMLID_8_"><circle class="st0" cx="16.5" cy="16.1" id="XMLID_854_" r="15.1"/><g id="GIuPRK.tif_4_"><g id="XMLID_834_"><path class="st1" d="M17.2,6.6c0,0,0.1,0,0.1,0c0.7,0,1.4,0.1,2,0.3c1.1,0.3,2,0.8,2.9,1.4     c1,0.8,1.7,1.7,2.2,2.9c0.3,0.8,0.5,1.6,0.5,2.4c0,0.7,0,1.3-0.1,2c-0.1,1-0.4,1.9-0.8,2.8c-0.3,0.6-0.6,1.1-1,1.6     c-0.8,1-1.8,1.8-3,2.2c-0.7,0.2-1.4,0.3-2.1,0.3c-0.9-0.1-1.7-0.4-2.4-1c-0.1-0.1-0.3-0.3-0.4-0.4c0,0,0,0,0,0c0,0,0,0,0,0.1     c-0.1,0.5-0.2,1-0.4,1.5c-0.2,0.8-0.4,1.6-0.7,2.4c-0.3,0.9-0.8,1.7-1.4,2.5c-0.2,0.3-0.4,0.6-0.7,0.9c-0.1,0.1-0.2,0.1-0.3,0.1     c-0.1,0-0.1-0.1-0.1-0.2c0-0.3-0.1-0.6-0.1-0.9c-0.1-0.6-0.1-1.3-0.1-2c0-0.7,0.1-1.4,0.3-2.1c0.2-0.9,0.4-1.8,0.6-2.7     c0.2-0.7,0.3-1.3,0.5-2c0.1-0.6,0.3-1.2,0.4-1.8c0.1-0.2,0-0.4,0-0.6C13,16,12.9,15.5,12.9,15c0-0.8,0.1-1.6,0.5-2.3     c0.3-0.5,0.7-0.9,1.3-1.1c0.6-0.2,1.3-0.1,1.8,0.3c0.3,0.3,0.5,0.6,0.5,1c0.1,0.4,0,0.9,0,1.3c-0.1,0.7-0.3,1.3-0.5,1.9     c-0.1,0.5-0.3,1-0.4,1.5c0,0.2-0.1,0.4-0.1,0.6c-0.1,0.7,0.2,1.3,0.8,1.7c0.5,0.3,1,0.4,1.6,0.4c0.8-0.1,1.4-0.5,2-1.2     c0.6-0.6,0.9-1.4,1.2-2.2c0.2-0.7,0.4-1.4,0.4-2.1c0-0.5,0.1-0.9,0.1-1.4c-0.1-1.1-0.4-2-1.1-2.8c-0.5-0.5-1-0.9-1.6-1.2     c-0.6-0.2-1.2-0.4-1.8-0.4c-0.7-0.1-1.4,0-2.1,0.1c-0.7,0.1-1.3,0.4-1.9,0.7c-0.5,0.3-1,0.7-1.4,1.2c-0.5,0.6-0.9,1.3-1.1,2     c-0.2,0.6-0.3,1.3-0.3,2c0,0.9,0.3,1.7,0.9,2.4c0.2,0.2,0.2,0.4,0.1,0.7c-0.1,0.3-0.1,0.6-0.2,0.8c0,0.1-0.1,0.2-0.1,0.3     c-0.1,0.2-0.4,0.3-0.6,0.2c-0.7-0.3-1.2-0.7-1.7-1.4c-0.4-0.6-0.7-1.3-0.8-2C8.1,15.7,8,15.4,8,15.2c0,0,0-0.1,0-0.1     c0-0.4,0-0.8,0-1.1c0,0,0-0.1,0-0.1c0.1-0.7,0.2-1.3,0.5-2c0.5-1.2,1.3-2.3,2.3-3.2c0.7-0.6,1.4-1,2.3-1.4c0.5-0.2,1-0.4,1.6-0.5     c0.6-0.1,1.2-0.2,1.8-0.2c0.1,0,0.3,0,0.4,0C16.9,6.6,17,6.6,17.2,6.6z" id="XMLID_835_"/></g></g></g></svg>